<svg width="96" height="15" viewBox="0 0 96 15" fill="none" xmlns="http://www.w3.org/2000/svg">
<path d="M8 3.90594L8.59879 5.34561L8.95064 6.19155L9.8639 6.26477L11.4182 6.38937L10.234 7.40375L9.53817 7.99978L9.75075 8.89097L10.1125 10.4077L8.78188 9.5949L8 9.11733L7.21812 9.5949L5.88746 10.4077L6.24925 8.89097L6.46183 7.99978L5.76602 7.40375L4.58184 6.38937L6.13609 6.26477L7.04936 6.19155L7.40121 5.34561L8 3.90594Z" fill="#FFBE0B" stroke="#FFBE0B" stroke-width="3"/>
<path d="M28 3.90594L28.5988 5.34561L28.9506 6.19155L29.8639 6.26477L31.4182 6.38937L30.234 7.40375L29.5382 7.99978L29.7508 8.89097L30.1125 10.4077L28.7819 9.5949L28 9.11733L27.2181 9.5949L25.8875 10.4077L26.2492 8.89097L26.4618 7.99978L25.766 7.40375L24.5818 6.38937L26.1361 6.26477L27.0494 6.19155L27.4012 5.34561L28 3.90594Z" fill="#FFBE0B" stroke="#FFBE0B" stroke-width="3"/>
<path d="M48 3.90594L48.5988 5.34561L48.9506 6.19155L49.8639 6.26477L51.4182 6.38937L50.234 7.40375L49.5382 7.99978L49.7508 8.89097L50.1125 10.4077L48.7819 9.5949L48 9.11733L47.2181 9.5949L45.8875 10.4077L46.2492 8.89097L46.4618 7.99978L45.766 7.40375L44.5818 6.38937L46.1361 6.26477L47.0494 6.19155L47.4012 5.34561L48 3.90594Z" fill="#FFBE0B" stroke="#FFBE0B" stroke-width="3"/>
<path d="M68 0L69.9838 4.76957L75.1329 5.18237L71.2098 8.54293L72.4084 13.5676L68 10.875L63.5916 13.5676L64.7902 8.54293L60.8671 5.18237L66.0162 4.76957L68 0Z" fill="#B6BFBD"/>
<path d="M88 0L89.9838 4.76957L95.1329 5.18237L91.2098 8.54293L92.4084 13.5676L88 10.875L83.5916 13.5676L84.7902 8.54293L80.8671 5.18237L86.0162 4.76957L88 0Z" fill="#B6BFBD"/>
</svg>
